<svg xmlns="http://www.w3.org/2000/svg" version="1.1" xmlns:xlink="http://www.w3.org/1999/xlink" xmlns:svgjs="http://svgjs.dev/svgjs" width="1000" height="1000" viewBox="0 0 1000 1000"><rect width="1000" height="1000" fill="#010536"></rect><g transform="matrix(0.7,0,0,0.7,149.57576852847114,438.565465651188)"><svg viewBox="0 0 396 70" data-background-color="#010536" preserveAspectRatio="xMidYMid meet" height="176" width="1000" xmlns="http://www.w3.org/2000/svg" xmlns:xlink="http://www.w3.org/1999/xlink"><g id="tight-bounds" transform="matrix(1,0,0,1,0.24000619610660578,-0.09401289883103914)"><svg viewBox="0 0 395.52 70.1880201729817" height="70.1880201729817" width="395.52"><g><svg viewBox="0 0 395.52 70.1880201729817" height="70.1880201729817" width="395.52"><g><svg viewBox="0 0 416.2217357321272 73.8617" height="70.1880201729817" width="395.52"><g><svg viewBox="0 0 416.2217357321272 73.8617" height="73.8617" width="416.2217357321272"><g id="textblocktransform"><svg viewBox="0 0 416.2217357321272 73.8617" height="73.8617" width="416.2217357321272" id="textblock"><g><svg viewBox="0 0 416.2217357321272 73.8617" height="73.8617" width="416.2217357321272"><g><svg><g></g><g></g></svg></g><g><svg><g></g><g><svg></svg></g></svg></g><g id="text-0"><svg viewBox="0 0 416.2217357321272 73.8617" height="73.8617" width="416.2217357321272"><g><svg xmlns="http://www.w3.org/2000/svg" xmlns:xlink="http://www.w3.org/1999/xlink" version="1.1" viewBox="30.233022689819336 63.7448616027832 195.56100463867188 128.51243591308594" x="0" y="0" height="73.8617" width="112.39743573212718" class="icon-s-0" data-fill-palette-color="accent" id="s-0"><path d="M200.755 110.874c0 3.959-3.209 7.168-7.168 7.168s-7.168-3.209-7.168-7.168c0-3.959 3.209-7.168 7.168-7.168s7.168 3.209 7.168 7.168z" fill="#ffffff" data-fill-palette-color="accent"></path><path d="M172.621 110.874c0 3.959-3.209 7.168-7.168 7.168s-7.168-3.209-7.168-7.168c0-3.959 3.209-7.168 7.168-7.168s7.168 3.209 7.168 7.168z" fill="#ffffff" data-fill-palette-color="accent"></path><path d="M186.982 123.879c0 3.959-3.209 7.168-7.168 7.168s-7.168-3.209-7.168-7.168c0-3.959 3.209-7.168 7.168-7.168s7.168 3.209 7.168 7.168z" fill="#ffffff" data-fill-palette-color="accent"></path><path d="M186.982 97.689c0 3.959-3.209 7.168-7.168 7.168s-7.168-3.209-7.168-7.168c0-3.959 3.209-7.168 7.168-7.168s7.168 3.209 7.168 7.168z" fill="#ffffff" data-fill-palette-color="accent"></path><path d="M224.102 124.903c-1.255-15.053-2.381-20.608-3.174-26.547-1.357-9.984-5.095-18.611-11.187-24.832-6.067-6.246-14.515-9.805-24.064-9.779-10.087 0-19.2 4.301-25.625 11.085h-64.103c-6.425-6.809-15.539-11.085-25.626-11.085-9.549-0.026-17.997 3.533-24.064 9.779-6.093 6.221-9.831 14.848-11.187 24.832-0.819 5.939-1.946 11.495-3.175 26.547-0.845 10.189-1.664 19.789-1.664 28.493 0 4.839 0.256 9.369 0.947 13.619 1.024 6.323 3.046 12.109 7.015 16.691 1.971 2.279 4.403 4.173 7.245 5.581s6.041 2.329 9.575 2.765c1.101 0.128 2.176 0.205 3.251 0.205 4.787 0.025 9.267-1.459 13.005-4.019 5.657-3.84 9.805-9.702 13.363-16.717 3.046-6.067 5.632-13.107 8.064-20.71h70.605c3.353 10.573 7.04 19.968 11.853 27.315 2.688 4.096 5.811 7.577 9.575 10.112 3.738 2.535 8.218 4.019 13.005 4.019 1.075 0 2.15-0.077 3.251-0.205 4.71-0.589 8.857-2.023 12.288-4.352 2.56-1.715 4.71-3.917 6.375-6.4 2.509-3.738 4.019-8.064 4.915-12.749s1.229-9.754 1.229-15.207c-0.025-8.653-0.845-18.279-1.69-28.442zM214.707 165.351c-0.845 5.248-2.406 9.088-4.633 11.623-1.126 1.28-2.406 2.304-4.071 3.149-1.664 0.819-3.712 1.459-6.298 1.792-0.691 0.077-1.331 0.128-1.946 0.128-2.765-0.025-5.018-0.743-7.296-2.279-3.405-2.253-6.835-6.656-9.933-12.826-3.097-6.144-5.913-13.977-8.55-22.733l-1.101-3.635h-85.734l-1.101 3.635c-3.533 11.673-7.373 21.683-11.751 28.288-2.176 3.303-4.454 5.734-6.733 7.27-2.304 1.511-4.531 2.253-7.296 2.279-0.614 0-1.28-0.051-1.946-0.128-3.456-0.435-5.939-1.408-7.859-2.688-1.434-0.973-2.586-2.15-3.584-3.635-1.485-2.227-2.637-5.197-3.353-8.96s-1.05-8.243-1.024-13.261c0-8.038 0.794-17.459 1.639-27.648 1.229-14.823 2.253-19.635 3.123-26.01 1.127-8.32 4.147-14.771 8.371-19.072 4.224-4.275 9.626-6.656 16.742-6.681 7.834 0 14.797 3.584 19.405 9.216l1.536 1.869h73.446l1.536-1.869c4.608-5.632 11.571-9.216 19.405-9.216 7.117 0.025 12.518 2.406 16.743 6.681 4.198 4.301 7.219 10.752 8.371 19.072 0.87 6.374 1.894 11.187 3.123 26.01 0.845 10.189 1.638 19.584 1.638 27.648-0.051 4.48-0.281 8.499-0.87 11.981z" fill="#ffffff" data-fill-palette-color="accent"></path><path d="M59.673 95.667c-3.021 3.558-4.839 8.141-4.839 13.159 0 5.35 2.074 10.189 5.453 13.824l13.184-13.184-13.799-13.799z" fill="#ffffff" data-fill-palette-color="accent"></path><path d="M62.694 124.851c3.456 2.688 7.757 4.301 12.467 4.301 5.017 0 9.6-1.817 13.159-4.838l-12.544-12.544-13.081 13.082z" fill="#ffffff" data-fill-palette-color="accent"></path><path d="M88.986 93.927c-3.635-3.379-8.474-5.453-13.824-5.453-5.017 0-9.6 1.817-13.159 4.838l13.773 13.799 13.21-13.184z" fill="#ffffff" data-fill-palette-color="accent"></path><path d="M78.106 109.44l12.544 12.544c3.021-3.558 4.838-8.141 4.838-13.159 0-4.71-1.613-9.011-4.301-12.467l-13.082 13.082z" fill="#ffffff" data-fill-palette-color="accent"></path></svg></g><g transform="matrix(1,0,0,1,129.83573573212718,0)"><svg width="286.38599999999997" viewBox="0 -29.5 176.99000549316406 45.650001525878906" height="73.8617" data-palette-color="#fbfbf8"><path d="M4.5 0L0 0 0-29.5 4.5-29.5 4.5 0ZM7.5 0L6 0 6-29.5 7.5-29.5 7.5 0ZM10.5 0L9 0 9-29.5 10.5-29.5 10.5 0ZM16.5 0L12 0 12-29.5 16.5-29.5 16.5 0ZM24 0L22.5 0 22.5-29.5 24-29.5 24 0ZM9.15 15.95L9.15 4.35 12.55 4.35Q14.55 4.35 15.45 5.25L15.45 5.25Q16.4 6.1 16.4 7.7L16.4 7.7Q16.4 8.7 15.75 9.6L15.75 9.6Q15.1 10.5 14.05 10.8L14.05 10.8 16.75 15.95 15.3 15.95 12.7 10.85 10.45 10.85 10.45 15.95 9.15 15.95ZM10.45 9.7L12.7 9.7Q13.9 9.7 14.5 9.15L14.5 9.15Q15.05 8.65 15.05 7.7L15.05 7.7Q15.05 6.75 14.5 6.15L14.5 6.15Q13.9 5.6 12.7 5.6L12.7 5.6 10.45 5.6 10.45 9.7ZM27 0L25.5 0 25.5-29.5 27-29.5 27 0ZM33 0L28.5 0 28.5-29.5 33-29.5 33 0ZM36 0L34.5 0 34.5-29.5 36-29.5 36 0ZM46.5 0L42 0 42-29.5 46.5-29.5 46.5 0ZM49.5 0L48 0 48-29.5 49.5-29.5 49.5 0ZM35.1 15.95L35.1 14.85 37.4 14.85 37.4 5.45 35.25 5.45 35.25 4.35 41 4.35 41 5.45 38.7 5.45 38.7 14.85 41.1 14.85 41.1 15.95 35.1 15.95ZM52.5 0L51 0 51-29.5 52.5-29.5 52.5 0ZM55.5 0L54 0 54-29.5 55.5-29.5 55.5 0ZM58.5 0L57 0 57-29.5 58.5-29.5 58.5 0ZM69 0L64.5 0 64.5-29.5 69-29.5 69 0ZM75 0L70.5 0 70.5-29.5 75-29.5 75 0ZM64.25 16.15L64.25 16.15Q62.85 16.15 61.85 15.4L61.85 15.4Q60.85 14.7 60.3 13.35L60.3 13.35Q59.75 12.05 59.75 10.3L59.75 10.3Q59.75 8 60.45 6.65L60.45 6.65Q61.15 5.3 62.15 4.75L62.15 4.75Q63.15 4.25 64.15 4.25L64.15 4.25Q65.2 4.25 66.15 4.8L66.15 4.8Q67.15 5.3 67.59 6.2L67.59 6.2 66.7 6.9 66.55 7.05 66.5 6.95Q66.5 6.8 66.45 6.65L66.45 6.65Q66.34 6.55 66.15 6.3L66.15 6.3Q65.7 5.8 65.25 5.6L65.25 5.6Q64.8 5.4 64.15 5.4L64.15 5.4Q62.8 5.4 61.9 6.45L61.9 6.45Q61.05 7.55 61.05 10L61.05 10Q61.05 12.4 61.9 13.7L61.9 13.7Q62.75 15 64.25 15L64.25 15Q64.8 15 65.4 14.8L65.4 14.8Q66.05 14.65 66.45 14.3L66.45 14.3 66.45 11.55 64.34 11.55 64.34 10.4 67.65 10.4 67.65 14.95Q66 16.15 64.25 16.15ZM80.99 0L76.49 0 76.49-29.5 80.99-29.5 80.99 0ZM83.99 0L82.49 0 82.49-29.5 83.99-29.5 83.99 0ZM86.99 0L85.49 0 85.49-29.5 86.99-29.5 86.99 0ZM94.49 0L92.99 0 92.99-29.5 94.49-29.5 94.49 0ZM100.49 0L95.99 0 95.99-29.5 100.49-29.5 100.49 0ZM92.24 15.95L91.09 12.55 87.34 12.55 86.19 15.95 84.89 15.95 89.14 4.15 89.29 4.15 93.59 15.95 92.24 15.95ZM87.69 11.55L90.74 11.55 89.24 7.15 87.69 11.55ZM106.49 0L101.99 0 101.99-29.5 106.49-29.5 106.49 0ZM112.49 0L107.99 0 107.99-29.5 112.49-29.5 112.49 0ZM115.49 0L113.99 0 113.99-29.5 115.49-29.5 115.49 0ZM118.49 0L116.99 0 116.99-29.5 118.49-29.5 118.49 0ZM125.99 0L124.49 0 124.49-29.5 125.99-29.5 125.99 0ZM110.84 15.95L110.84 4.35 111.89 4.35 114.74 10.05 117.64 4.35 118.64 4.35 118.64 15.95 117.39 15.95 117.39 7.2 114.89 11.9 114.39 11.9 112.04 7.25 112.04 15.95 110.84 15.95ZM131.99 0L127.49 0 127.49-29.5 131.99-29.5 131.99 0ZM134.99 0L133.49 0 133.49-29.5 134.99-29.5 134.99 0ZM140.99 0L136.49 0 136.49-29.5 140.99-29.5 140.99 0ZM148.49 0L146.99 0 146.99-29.5 148.49-29.5 148.49 0ZM151.49 0L149.99 0 149.99-29.5 151.49-29.5 151.49 0ZM136.69 15.95L136.69 4.35 143.79 4.35 143.79 5.5 137.89 5.5 137.89 9.3 142.79 9.3 142.79 10.5 137.89 10.5 137.89 14.8 143.74 14.8 143.74 15.95 136.69 15.95ZM154.49 0L152.99 0 152.99-29.5 154.49-29.5 154.49 0ZM160.49 0L155.99 0 155.99-29.5 160.49-29.5 160.49 0ZM163.49 0L161.99 0 161.99-29.5 163.49-29.5 163.49 0ZM169.49 0L164.99 0 164.99-29.5 169.49-29.5 169.49 0ZM176.99 0L175.49 0 175.49-29.5 176.99-29.5 176.99 0ZM165.69 16.15L165.69 16.15Q163.44 16.15 162.04 14.65L162.04 14.65 162.74 13.5 162.79 13.35 162.94 13.4Q162.94 13.45 162.99 13.6L162.99 13.6Q162.99 13.7 163.09 13.85L163.09 13.85Q163.14 13.95 163.29 14.05L163.29 14.05Q164.34 14.95 165.89 14.95L165.89 14.95Q166.89 14.95 167.59 14.4L167.59 14.4Q168.29 13.8 168.29 13L168.29 13Q168.29 12.45 168.04 12.05L168.04 12.05Q167.84 11.7 167.29 11.35L167.29 11.35Q166.74 11 165.59 10.5L165.59 10.5Q163.89 9.85 163.14 9L163.14 9Q162.44 8.15 162.44 7.1L162.44 7.1Q162.44 5.8 163.39 5L163.39 5Q164.34 4.2 165.94 4.2L165.94 4.2Q166.89 4.2 167.74 4.6L167.74 4.6Q168.54 5 169.19 5.65L169.19 5.65 168.34 6.8 168.24 6.7Q168.24 6.65 168.19 6.55L168.19 6.55Q168.19 6.4 168.09 6.3L168.09 6.3Q168.04 6.15 167.89 6.05L167.89 6.05Q167.49 5.65 166.94 5.45L166.94 5.45Q166.44 5.3 165.74 5.3L165.74 5.3Q164.84 5.3 164.34 5.8L164.34 5.8Q163.79 6.3 163.79 7L163.79 7Q163.79 7.55 163.99 7.95L163.99 7.95Q164.24 8.35 164.84 8.7L164.84 8.7Q165.44 9.1 166.64 9.55L166.64 9.55Q168.29 10.25 168.94 10.95L168.94 10.95Q169.54 11.7 169.54 12.8L169.54 12.8Q169.54 13.65 169.14 14.4L169.14 14.4Q168.69 15.15 167.84 15.65L167.84 15.65Q166.94 16.15 165.69 16.15Z" opacity="1" transform="matrix(1,0,0,1,0,0)" fill="#fbfbf8" class="undefined-text-0" data-fill-palette-color="primary"></path></svg></g></svg></g></svg></g></svg></g></svg></g></svg></g></svg></g><defs></defs></svg><rect width="395.52" height="70.1880201729817" fill="none" stroke="none" visibility="hidden"></rect></g></svg></g></svg>